<?xml version="1.0" encoding="utf-8"?>
<!-- Generator: Adobe Illustrator 15.0.0, SVG Export Plug-In  -->
<!DOCTYPE svg PUBLIC "-//W3C//DTD SVG 1.1//EN" "http://www.w3.org/Graphics/SVG/1.1/DTD/svg11.dtd" [
	<!ENTITY ns_flows "http://ns.adobe.com/Flows/1.0/">
]>
<svg version="1.1"
	 xmlns="http://www.w3.org/2000/svg" xmlns:xlink="http://www.w3.org/1999/xlink" xmlns:a="http://ns.adobe.com/AdobeSVGViewerExtensions/3.0/"
	 x="0px" y="0px" width="465px" height="115px" viewBox="0 0 465 115" enable-background="new 0 0 465 115" xml:space="preserve">
<defs>
</defs>
<path fill="#FFFFFF" d="M25.213,21.335c2.017,0.325,3.836,1.113,5.46,2.365c1.622,1.252,2.435,3.177,2.435,5.773
	c0,1.113-0.163,2.295-0.487,3.547c-5.193,20.773-7.79,33.873-7.79,39.297c0,1.438,0.185,2.318,0.557,2.644
	c-0.511,0.88-1.52,1.588-3.025,2.122c-1.508,0.531-2.98,0.799-4.417,0.799c-0.464,0-0.789-0.023-0.974-0.069
	c-2.829-0.372-4.242-3.293-4.242-8.764c0-4.774,1.158-11.963,3.478-21.561c-2.644,4.312-5.773,6.468-9.39,6.468
	C2.271,53.771,0,50.385,0,43.8c0-2.04,0.162-4.138,0.487-6.294c0.323-2.156,0.811-4.834,1.46-8.033
	c0.278-1.298,0.521-2.515,0.73-3.651c0.209-1.136,0.313-1.982,0.313-2.539c0-0.324-0.024-0.532-0.07-0.626
	c0.14-0.045,0.487-0.092,1.044-0.139c0.556-0.046,1.205-0.07,1.947-0.07c2.226,0,4.161,0.441,5.808,1.321
	c1.646,0.882,2.469,2.504,2.469,4.869c0,0.232-0.047,0.719-0.139,1.46l-0.835,5.355c-0.094,0.65-0.337,2.25-0.73,4.799
	c-0.395,2.55-0.591,4.406-0.591,5.564c0,1.207,0.209,1.809,0.626,1.809s1.183-0.788,2.295-2.365
	c1.947-2.782,3.466-5.958,4.556-9.529c1.089-3.57,1.831-6.735,2.226-9.494c0.394-2.758,0.592-4.462,0.592-5.112
	C22.188,20.941,23.195,21.011,25.213,21.335z"/>
<path fill="#FFFFFF" d="M68.718,51.312l-0.975,0.696c-0.093,0.093-0.186,0.163-0.277,0.208c-0.094,0.047-0.187,0.093-0.278,0.139
	l-0.626,0.417l-0.696,0.417l-0.834,0.557c-0.511,0.232-0.812,0.395-0.904,0.487c-0.186,0.139-0.359,0.243-0.521,0.313
	c-0.163,0.069-0.313,0.151-0.452,0.243l-0.487,0.278l-0.278,0.139l-0.278,0.139l-0.556,0.278l-0.557,0.278l-2.435,1.043
	c-0.695,0.278-1.554,0.581-2.573,0.904l-1.113,0.278c-0.139,0.834-0.348,1.668-0.626,2.504c-0.974,3.014-2.563,5.482-4.764,7.406
	c-2.203,1.926-4.533,2.887-6.99,2.887c-0.882,0-1.739-0.139-2.573-0.417c-2.087-0.649-3.745-1.982-4.974-3.999
	c-1.229-2.018-1.843-4.37-1.843-7.061c0-1.714,0.278-3.477,0.835-5.286c0.974-3.06,2.562-5.529,4.764-7.407s4.556-2.817,7.06-2.817
	c0.974,0,1.809,0.116,2.504,0.348c1.901,0.604,3.454,1.82,4.66,3.652c1.205,1.832,1.901,3.954,2.087,6.364h0.209
	c1.158-0.231,1.947-0.393,2.364-0.487c0.371-0.045,1.136-0.254,2.295-0.626l0.557-0.208l0.557-0.139l0.278-0.139l0.278-0.069
	l0.486-0.209l1.044-0.417c0.277-0.093,0.579-0.209,0.903-0.348c0.371-0.185,0.649-0.301,0.835-0.348l0.766-0.348
	c0.092-0.046,0.196-0.092,0.313-0.139c0.115-0.045,0.22-0.115,0.313-0.208l0.626-0.209l1.043-0.556L68.718,51.312z M49.277,65.605
	c1.136-1.275,2.005-2.91,2.608-4.904c0.185-0.557,0.37-1.297,0.557-2.225c-0.929,0.093-1.646,0.116-2.156,0.069
	c-0.14,0-0.337-0.011-0.592-0.035c-0.255-0.023-0.545-0.081-0.869-0.174c-0.325-0.046-0.812-0.162-1.461-0.348
	c-0.788-0.231-1.6-0.649-2.434-1.252l-0.557-0.417c-0.094,0.232-0.325,0.812-0.695,1.739c-0.464,1.438-0.696,2.922-0.696,4.451
	c0,1.484,0.255,2.689,0.766,3.617c0.51,0.928,1.228,1.391,2.156,1.391C47.017,67.518,48.141,66.881,49.277,65.605z M47.364,52.146
	c0.093,0.186,0.278,0.417,0.557,0.696c0.371,0.372,0.766,0.65,1.183,0.834c0.231,0.186,0.487,0.302,0.765,0.348
	c0.093,0,0.231,0.035,0.418,0.104c0.185,0.07,0.348,0.104,0.486,0.104c0.557,0.139,1.113,0.208,1.67,0.208
	c-0.187-0.974-0.511-1.75-0.974-2.33c-0.465-0.579-1.044-0.869-1.739-0.869C49.08,51.243,48.292,51.544,47.364,52.146z"/>
<path fill="#FFFFFF" d="M276.708,69.674c0,0-0.625,0.73-1.877,2.191s-2.504,2.469-3.756,3.025c-0.465,0.231-1.021,0.348-1.67,0.348
	c-2.18,0-4.348-1.75-6.504-5.252c-2.156-3.5-4.346-8.241-6.572-14.223c-0.789,1.391-1.414,2.597-1.877,3.617
	c-0.373,0.649-1.113,2.086-2.227,4.312l-1.877,3.896l-1.531,3.338l-0.557,1.322l-0.557,1.32c-0.277,0.557-0.51,1.113-0.695,1.67
	l-0.277,0.557l-4.799-2.018l0.069-0.139l0.209-0.487l0.835-1.739c0.092-0.23,0.509-1.088,1.252-2.572l1.668-3.339l2.088-3.965
	l2.434-4.312l2.713-4.59c0.092-0.093,0.324-0.463,0.695-1.113l0.557-0.904c-0.557-1.53-1.693-5.008-3.408-10.433
	c-1.578-4.869-2.736-8.322-3.479-10.363c-0.742-2.04-1.414-3.454-2.016-4.243c0.184-0.139,0.625-0.405,1.321-0.8
	c0.695-0.394,1.588-0.776,2.678-1.147c1.09-0.371,2.191-0.557,3.305-0.557c3.709,0,6.328,2.295,7.859,6.886
	c0.787,2.597,1.668,5.194,2.643,7.79c0.184-0.278,0.348-0.487,0.486-0.626l0.348-0.487l0.209-0.209l0.209-0.278l0.695-0.904
	l0.766-0.904l0.695-0.904l0.766-0.834c0.277-0.371,0.51-0.649,0.695-0.834l0.625-0.765l0.627-0.696l1.252-1.321l0.277-0.278
	l0.279-0.348l0.486-0.487l0.973-0.974l1.809-1.808l1.947,2.017l-1.668,1.739l-0.904,0.974l-0.488,0.557l-0.207,0.278l-0.279,0.348
	l-1.113,1.321l-0.625,0.695c-0.094,0.186-0.279,0.464-0.557,0.835l-0.695,0.765l-0.627,0.834c-0.416,0.557-0.648,0.858-0.695,0.904
	l-0.625,0.904l-0.695,0.974l-0.209,0.208l-0.139,0.278c-0.186,0.186-0.303,0.348-0.348,0.487c-0.188,0.186-0.418,0.511-0.695,0.974
	l-0.209,0.278l-0.209,0.208c0,0.047-0.117,0.233-0.348,0.557l-0.418,0.626c5.982,17.064,9.945,25.735,11.895,26.012
	C276.685,69.072,276.708,69.674,276.708,69.674z"/>
<path fill="#FFFFFF" d="M314.058,54.546c-2.828,1.554-5.842,3.328-9.043,5.321l0.209,2.713c0.047,0.834,0.244,3.616,0.592,8.346
	s0.521,9.111,0.521,13.146c0,12.473-1.971,18.732-5.912,18.779l-0.834,0.069c-2.504,0-5.484-1.24-8.938-3.721
	c-3.455-2.481-6.805-7.293-10.051-14.432c-0.465-0.929-0.695-1.948-0.695-3.061c0-4.869,4.961-10.851,14.885-17.945
	c-0.094-1.391-0.141-2.457-0.141-3.199c-1.484,1.484-3.291,2.816-5.424,4c-2.133,1.182-4.221,1.773-6.26,1.773
	c-2.086,0-3.664-0.545-4.73-1.635s-1.6-2.469-1.6-4.139c0-1.669,0.488-3.361,1.461-5.077c0.975-1.715,2.271-3.083,3.895-4.104
	c2.645-1.623,5.611-2.435,8.902-2.435c1.066,0,2.064,0.093,2.992,0.278c-0.047-0.371-0.117-1.124-0.209-2.261
	c-0.094-1.135-0.209-1.936-0.348-2.399c0.139-0.045,0.475-0.115,1.008-0.208c0.533-0.092,1.125-0.139,1.773-0.139
	c2.088,0,3.953,0.661,5.6,1.982c1.645,1.321,2.607,3.791,2.887,7.407l0.209,3.686c3.199-1.854,6.154-3.465,8.867-4.834
	c2.713-1.367,4.439-2.236,5.182-2.608l0.627,1.739C318.695,52.008,316.886,52.993,314.058,54.546z M286.445,60.98
	c1.113,0,2.457-0.441,4.035-1.322c1.576-0.88,2.896-1.9,3.965-3.06v-0.07l-0.279-3.756c-2.041,0-4.207,0.407-6.502,1.217
	c-2.297,0.812-3.443,2.307-3.443,4.486C284.22,60.145,284.96,60.98,286.445,60.98z M295.07,78.994c0-4.127-0.068-8.16-0.209-12.102
	c-7.049,5.563-10.572,10.107-10.572,13.631c0,0.789,0.186,1.554,0.557,2.296c1.158,2.179,2.48,4.022,3.965,5.529
	s2.783,2.261,3.895,2.261c1.346,0,2.088-1.183,2.227-3.547C295.023,83.816,295.07,81.127,295.07,78.994z"/>
<path fill="#FFFFFF" d="M345.843,53.398c0.186-0.045,0.418-0.069,0.695-0.069c1.066,0,1.461,0.395,1.182,1.183
	c-0.047,0.232-0.729,2.806-2.051,7.721s-3.711,9.783-7.164,14.605c-3.455,4.822-7.176,7.141-11.164,6.955
	c-1.994-0.094-3.408-1.008-4.242-2.747s-1.252-4.093-1.252-7.06c0-1.9,0.127-3.918,0.383-6.051c0.254-2.133,0.613-4.684,1.078-7.651
	c0.324-2.179,0.602-4.288,0.834-6.329c-3.061-0.045-5.402-0.324-7.023-0.834c-1.625-0.51-2.703-1.148-3.234-1.913
	c-0.533-0.765-0.801-1.704-0.801-2.816c0-0.324,0.047-0.904,0.139-1.739l0.07-1.669c0-0.788-0.094-1.461-0.277-2.017
	c0.139-0.046,0.439-0.15,0.904-0.313c0.463-0.162,1.053-0.324,1.773-0.487c0.717-0.162,1.447-0.244,2.189-0.244
	c1.438,0,2.586,0.417,3.443,1.252c0.857,0.835,1.217,2.272,1.078,4.313c-0.047,0.789,0.289,1.287,1.008,1.495
	c0.719,0.209,1.381,0.313,1.982,0.313c2.227-0.185,4.359,0.244,6.4,1.287c2.039,1.043,3.059,3.188,3.059,6.434
	c0,0.325-0.047,0.904-0.139,1.739c-0.094,0.927-0.277,2.273-0.557,4.034c-0.695,5.286-1.043,8.927-1.043,10.92
	c0,2.504,0.439,3.756,1.322,3.756c0.557,0,1.344-0.534,2.365-1.6c1.621-1.716,3.082-4.231,4.381-7.546
	c1.297-3.315,2.342-6.549,3.129-9.703c0.789-3.153,1.184-4.869,1.184-5.147C345.541,53.468,345.658,53.445,345.843,53.398z"/>
<path fill="#FFFFFF" d="M382.707,51.104c0,0.603-0.895,2.91-2.68,6.92c-1.785,4.011-4.242,7.744-7.371,11.198
	c-3.131,3.455-6.807,5.182-11.025,5.182c-2.18,0-3.697-0.857-4.555-2.573c-0.859-1.715-1.287-4.08-1.287-7.094
	c0-1.299,0.023-2.271,0.07-2.922c-2.645,2.643-5.473,3.965-8.486,3.965c-2.18,0-3.814-0.545-4.902-1.635
	c-1.09-1.089-1.635-2.469-1.635-4.139c0-1.622,0.463-3.257,1.391-4.903c0.928-1.645,2.201-2.956,3.826-3.93
	c2.457-1.53,5.191-2.295,8.207-2.295c1.066,0,2.063,0.093,2.99,0.278c0.045-0.509,0.07-1.252,0.07-2.226
	c0-1.019-0.07-1.831-0.209-2.434c0.139-0.046,0.475-0.104,1.008-0.174c0.533-0.07,1.123-0.104,1.773-0.104
	c2.18,0,4.092,0.556,5.738,1.669c1.645,1.113,2.469,3.176,2.469,6.19l-0.068,1.252c-0.232,3.154-0.348,5.634-0.348,7.442
	c0,4.775,0.67,7.164,2.016,7.164c0.648,0,1.484-0.58,2.504-1.739c1.855-2.087,3.396-4.253,4.625-6.503
	c1.229-2.249,2.133-4.196,2.713-5.843c0.58-1.645,0.869-2.562,0.869-2.747H382.707z M350.085,60.633
	c0.834,0,1.844-0.395,3.025-1.184c1.182-0.788,2.283-1.714,3.305-2.782c0.184-1.762,0.348-3.083,0.486-3.964
	c-1.994,0-3.93,0.372-5.809,1.113c-1.877,0.742-2.816,2.203-2.816,4.382C348.277,59.821,348.878,60.633,350.085,60.633z"/>
<path fill="#FFFFFF" d="M407.187,52.425c-0.324,0.65-0.916,1.809-1.773,3.478c-0.859,1.669-1.703,3.224-2.539,4.66
	c-0.695,1.346-1.414,2.459-2.156,3.338c-0.648,0.743-1.182,1.276-1.6,1.601l-0.486,0.348l-0.557,0.278
	c-0.047,0-0.162,0.047-0.348,0.139h-0.209c0,0.047-0.023,0.07-0.068,0.07h-0.279h-0.068h-0.141h-0.209
	c-0.324,0-0.602-0.093-0.834-0.279c-0.324-0.139-0.557-0.37-0.695-0.695c-0.186-0.23-0.313-0.521-0.383-0.869
	c-0.068-0.348-0.127-0.567-0.174-0.66c-0.094-0.649-0.139-1.553-0.139-2.713c0.045-1.158,0.162-2.852,0.348-5.078
	c0.092-1.113,0.139-1.923,0.139-2.434c0-1.02-0.023-1.715-0.068-2.087c-0.047-0.185-0.164-0.324-0.348-0.417
	c-0.141-0.092-0.326-0.023-0.557,0.208l-0.418,0.417c-0.324,0.417-0.65,0.974-0.975,1.669c-0.232,0.417-0.533,1.043-0.904,1.878
	c-0.695,1.809-1.137,3.015-1.32,3.617c-0.604,1.763-1.16,3.641-1.67,5.634l-0.625,2.295c-0.975,3.711-3.061,5.564-6.26,5.564
	c-1.809,0-3.096-0.719-3.861-2.156c-0.764-1.438-1.146-3.408-1.146-5.912c0-1.344,0.092-2.922,0.277-4.729
	c0.186-1.809,0.395-3.547,0.627-5.216c0.557-4.266,0.834-7.14,0.834-8.625c0-0.974-0.07-1.832-0.209-2.574
	c0.139-0.045,0.441-0.104,0.904-0.174c0.463-0.069,0.996-0.104,1.6-0.104c2.041,0,3.826,0.673,5.355,2.017
	c1.531,1.346,2.295,3.826,2.295,7.442l-0.068,1.391v0.348c0.926-1.623,1.947-3.061,3.061-4.313c1.111-1.252,2.201-1.878,3.268-1.878
	c1.576,0,2.365,1.485,2.365,4.452c0,0.742-0.115,2.156-0.348,4.243c0,0.372-0.047,0.881-0.139,1.53v0.417
	c-0.094,0.556-0.186,1.438-0.279,2.643c0,1.067,0.023,1.809,0.07,2.226l0.209,0.695l0.068,0.07l0.141,0.069h0.068l0.209-0.069h0.139
	h0.07c0-0.046,0.045-0.07,0.139-0.07c0.047-0.045,0.105-0.069,0.174-0.069c0.07,0,0.127-0.022,0.174-0.069l0.348-0.278
	c0.141-0.093,0.557-0.487,1.252-1.183c0.789-0.927,1.484-1.947,2.088-3.061c0.787-1.344,1.6-2.816,2.434-4.416
	s1.414-2.701,1.738-3.304L407.187,52.425z"/>
<path fill="#FFFFFF" d="M438.833,54.373c-0.789,2.041-1.74,4.104-2.852,6.19c-1.113,2.086-3.016,4.162-5.703,6.225
	c-2.691,2.064-6.053,2.98-10.086,2.748c-1.902-0.14-3.234-0.801-4-1.982c-0.764-1.183-1.146-2.816-1.146-4.904
	c0-1.205,0.115-2.618,0.348-4.242c-0.834,1.484-2.121,2.841-3.861,4.068c-1.738,1.23-3.559,1.844-5.459,1.844
	c-0.557,0-1.113-0.069-1.67-0.209c-1.484-0.323-2.596-0.973-3.338-1.947c-0.742-0.974-1.113-2.132-1.113-3.478
	c0-1.669,0.521-3.338,1.564-5.008c1.045-1.669,2.424-2.991,4.139-3.964c2.227-1.205,4.637-1.809,7.234-1.809
	c1.297,0,2.643,0.163,4.033,0.487c0.51-3.941,0.881-8.381,1.113-13.319c0.232-4.938,0.348-9.331,0.348-13.18
	c0-2.087-0.023-3.223-0.068-3.408c0-0.185,1.018-0.15,3.059,0.104c2.041,0.255,3.871,1.021,5.496,2.295
	c1.621,1.276,2.434,3.304,2.434,6.086c0,0.372-0.047,0.974-0.139,1.808c-0.139,1.113-0.441,3.316-0.904,6.608
	c-0.65,4.544-1.16,8.462-1.531,11.754c-0.371,3.292-0.555,6.167-0.555,8.625c0,4.313,0.717,6.469,2.154,6.469
	c0.418,0,0.881-0.162,1.393-0.487c1.668-1.112,3.047-2.296,4.139-3.547c1.088-1.252,1.912-2.375,2.469-3.373
	c0.557-0.997,0.834-1.541,0.834-1.635L438.833,54.373z M407.917,58.615c0.301,0.371,0.73,0.557,1.287,0.557
	c1.111,0,2.387-0.696,3.824-2.087s2.549-3.13,3.338-5.216c-2.086-0.046-4.092,0.243-6.016,0.869s-2.887,2.052-2.887,4.278
	C407.464,57.711,407.615,58.245,407.917,58.615z"/>
<path fill="#FFFFFF" d="M464.916,53.607c-2.18,4.081-4.729,7.64-7.65,10.676c-2.922,3.038-5.867,5.368-8.834,6.99
	c-2.967,1.624-5.656,2.435-8.066,2.435c-2.273,0-4.07-0.741-5.391-2.226c-1.322-1.483-1.982-3.687-1.982-6.607
	c0-1.066,0.115-2.365,0.348-3.895c0.74-4.498,2.492-7.686,5.25-9.564c2.76-1.878,5.691-2.817,8.799-2.817
	c1.205,0,2.203,0.116,2.99,0.348c1.02,0.325,1.879,0.928,2.574,1.809c0.695,0.881,1.043,1.924,1.043,3.13
	c0,1.345-0.463,2.782-1.391,4.312c-0.928,1.484-2.238,2.494-3.93,3.025c-1.693,0.534-3.396,0.777-5.111,0.73
	c-0.094,1.021-0.141,1.717-0.141,2.087c0,2.829,0.857,4.243,2.574,4.243c1.576,0,3.605-1.009,6.086-3.025
	c2.48-2.018,4.844-4.324,7.094-6.921c2.248-2.596,3.697-4.544,4.348-5.842L464.916,53.607z M443.841,60.215
	c3.432,0.232,5.75-0.881,6.955-3.338c0.279-0.557,0.418-1.183,0.418-1.878c0-0.602-0.164-1.113-0.486-1.53
	c-0.326-0.417-0.859-0.649-1.602-0.696C446.484,52.541,444.722,55.022,443.841,60.215z"/>
<path fill="#C01C10" d="M222.587,28.837c0.041-1.852-0.068-3.707-0.355-5.555c-0.531-3.387-2.094-5.833-4.23-7.716
	C213.091,6.49,204.826-0.028,192.875,0c-8.838,0.021-18.682,3.333-25.246,9.307c-5.488,4.991-8.746,12.108-12.135,18.775
	c-5.244-10.287-13.115-18.912-23.881-23.093c-1.299-0.505-2.764-0.965-4.34-1.364c-0.219-0.106-0.459-0.165-0.709-0.175
	c-0.602-0.142-1.217-0.277-1.846-0.401c-0.039-1.036-0.957-2.021-2.238-1.715c-1.133,0.27-2.25,0.58-3.359,0.917
	c-10.045-0.902-21.262,0.904-25.625,8.345c-7.012,5.715-7.308,17.758-4.795,27.896c0.039,5.374,2.189,11.069,4.264,15.844
	c2.785,6.408,7.383,11.621,11.959,16.797c4.754,5.381,9.791,10.514,15.025,15.426c5.666,5.315,11.85,10.801,18.6,15.203
	c0.139,0.161,0.273,0.326,0.418,0.488c0.377,0.428,0.816,0.582,1.244,0.565c0.123,0.077,0.248,0.152,0.373,0.229
	c2.918,2.325,5.963,4.497,9.117,6.515c0.982,1,1.949,2.012,2.939,3.004c0.732,0.736,1.645,0.63,2.287,0.145
	c0.078,0.045,0.154,0.091,0.236,0.137c0.178,0.1,0.357,0.156,0.537,0.189c0.004,0.062,0.012,0.121,0.016,0.182
	c0.1,1.348,1.455,2.261,2.709,1.555c1.309-0.736,2.516-1.574,3.656-2.48c0.559,0.197,1.203,0.117,1.742-0.446
	c2.525-2.634,5.025-5.29,7.506-7.964c6.252-4.217,11.752-9.96,16.871-15.707c0.203-0.193,0.41-0.387,0.611-0.582
	c0.871,0.186,1.777-0.292,2.115-1.252c0.145-0.407,0.27-0.817,0.4-1.229c1.645-1.654,3.252-3.351,4.816-5.086
	c0.082-0.07,0.152-0.151,0.215-0.238c2.582-2.877,5.055-5.852,7.389-8.918c0.26-0.141,0.496-0.35,0.678-0.658
	c0.176-0.303,0.342-0.611,0.502-0.92c2.025-2.74,3.939-5.545,5.732-8.408c0.488-0.167,0.914-0.557,1.145-1.18
	c0.191-0.516,0.363-1.042,0.537-1.565c1.352-2.287,2.625-4.606,3.809-6.955c2.289-4.538,4.283-9.438,5.428-14.48
	c0.945,0.062,1.893-0.507,1.805-1.722C223.236,32.921,222.97,30.865,222.587,28.837 M111.91,25.813
	c1.111-0.468,2.209-0.96,3.293-1.481c-0.059,0.105-0.115,0.208-0.174,0.313c-1.184,0.577-2.391,1.086-3.604,1.54
	C111.587,26.06,111.748,25.935,111.91,25.813 M112.63,45.825c0.707-0.158,1.357-0.444,1.953-0.834
	c-0.57,1.784-1.125,3.572-1.684,5.357C112.683,48.875,112.601,47.36,112.63,45.825 M110.404,30.345
	c0.699-0.216,1.396-0.456,2.096-0.712c-0.238,0.414-0.471,0.832-0.695,1.251c-0.525,0.179-1.051,0.322-1.563,0.413
	C110.294,30.977,110.351,30.66,110.404,30.345 M109.013,46.119c-0.012,1.174,0.037,2.335,0.154,3.478
	c-0.426-0.314-0.848-0.634-1.264-0.961C108.287,47.804,108.654,46.964,109.013,46.119 M104.537,45.065
	c-0.111-0.418-0.234-0.896-0.357-1.411c0.365-0.12,0.691-0.372,0.896-0.801c0.316-0.668,0.609-1.343,0.896-2.022
	c0.127,0.707,0.313,1.364,0.568,1.959c-0.619,1.494-1.268,2.975-1.949,4.438c-0.178-0.14-0.357-0.281-0.537-0.42
	C104.494,46.424,104.744,45.825,104.537,45.065 M103.328,37.143c0.025-1.542,0.277-3.002,0.914-4.156
	c0.154,0.136,0.314,0.269,0.488,0.396C104.261,34.638,103.791,35.891,103.328,37.143 M105.103,17.094
	c-1.168,0.643-2.332,1.289-3.494,1.94c0.02-0.333,0.031-0.668,0.045-1.002c0.895-0.132,1.371-0.845,1.432-1.604
	c1.01-0.488,2.02-0.975,3.033-1.455C105.771,15.673,105.429,16.381,105.103,17.094 M102.892,22.723
	c-0.049,0.159-0.096,0.318-0.143,0.48c-0.533,0.365-1.055,0.74-1.58,1.111c0.021-0.226,0.045-0.451,0.066-0.678
	C101.789,23.332,102.341,23.028,102.892,22.723 M105.949,6.425c-0.139,0.084-0.279,0.171-0.418,0.257
	c-0.51,0.069-1.004,0.155-1.471,0.27C104.671,6.753,105.3,6.576,105.949,6.425 M103.232,11.044c0.109,0.086,0.229,0.161,0.357,0.215
	c-0.811,0.396-1.619,0.8-2.428,1.203C101.773,11.9,102.457,11.417,103.232,11.044 M100.611,29.932
	c0.539-0.178,1.08-0.358,1.621-0.542c0.016,0.07,0.035,0.139,0.051,0.209c-0.604,0.666-1.078,1.427-1.441,2.252
	c-0.09-0.214-0.209-0.391-0.346-0.536C100.533,30.855,100.57,30.394,100.611,29.932 M96.648,35.68
	c0.033,0.166,0.061,0.333,0.094,0.499c0.146,0.704,0.611,1.093,1.156,1.23c0.297,0.434,0.588,0.871,0.887,1.3
	c0.426,1.535,0.9,3.057,1.391,4.576c-1.299-1.323-2.633-2.611-4.008-3.862C96.353,38.177,96.515,36.93,96.648,35.68 M101.279,61.318
	c-2.023-2.629-3.77-5.509-5.16-8.547c6.094,8.339,12.299,16.588,19.123,24.305C110.263,72.086,105.523,66.828,101.279,61.318
	 M112.945,41.877c0.379-2.727,1.072-5.463,1.984-8.1c0.436-0.195,0.867-0.405,1.295-0.64c0.076,0.637,0.131,1.279,0.158,1.927
	C115.818,37.656,114.814,40.681,112.945,41.877 M113.91,12.11c0.014-0.223,0.02-0.446,0.029-0.669c0.992-0.418,1.99-0.821,2.99-1.21
	C115.935,10.872,114.927,11.499,113.91,12.11 M118.902,54.714c-0.053,0.012-0.107,0.025-0.158,0.041
	c0.186-0.72,0.381-1.439,0.582-2.156c0.277-0.31,0.543-0.629,0.797-0.959C119.759,52.685,119.353,53.71,118.902,54.714
	 M122.681,33.778c-0.447,0.905-0.883,1.817-1.303,2.735c0.436-1.083,0.896-2.155,1.379-3.218
	C122.732,33.454,122.707,33.616,122.681,33.778 M125.402,9.198c-0.383,0.085-0.768,0.164-1.146,0.258
	c0.43-0.33,0.852-0.671,1.273-1.01C125.48,8.695,125.445,8.948,125.402,9.198 M186.269,54.405c0.01,0.694,0.02,1.389,0.041,2.083
	c-0.117,0.057-0.238,0.112-0.355,0.173c-0.049-0.61-0.113-1.22-0.178-1.83C185.941,54.688,186.109,54.55,186.269,54.405
	 M185.097,5.069c-0.451-0.053-0.891-0.066-1.328-0.061c-0.029-0.018-0.061-0.038-0.092-0.056c0.689-0.177,1.381-0.343,2.072-0.485
	C185.531,4.661,185.312,4.857,185.097,5.069 M174.179,40.406c-0.219-1.261-0.504-2.509-0.865-3.729
	c0.152-0.176,0.307-0.352,0.463-0.525C173.962,37.563,174.093,38.984,174.179,40.406 M173.011,31.818
	c-0.211,0.215-0.422,0.434-0.635,0.658c0.039-0.808,0.1-1.642,0.174-2.492C172.716,30.592,172.873,31.203,173.011,31.818
	 M167.054,15.358c-0.441,0.785-0.842,1.536-1.193,2.213c-1.283,2.473-2.496,5.045-3.621,7.677c-1.549,1.819-2.941,3.785-4.121,5.943
	c-0.639,1.162-0.006,2.162,0.906,2.5c-0.156,0.46-0.309,0.919-0.455,1.382c-0.367-0.968-0.746-1.93-1.15-2.88
	C160.451,26.506,163.144,20.475,167.054,15.358 M154.867,35.317c0.365,0.948,0.715,1.903,1.041,2.865
	c-0.646-1.063-1.342-2.096-2.084-3.102C154.144,35.256,154.507,35.342,154.867,35.317 M146.314,33.617
	c0.197,0.506,0.398,1.011,0.6,1.516c-0.068,0.099-0.139,0.195-0.209,0.293c-0.125-0.616-0.262-1.226-0.422-1.828
	C146.292,33.605,146.304,33.61,146.314,33.617 M139.32,17.458c-0.039,0.083-0.078,0.167-0.119,0.25
	c-0.455-0.424-0.916-0.842-1.381-1.251C138.328,16.777,138.83,17.111,139.32,17.458 M138.863,28.238
	c0.242,0.217,0.486,0.431,0.732,0.642c-0.002,0.019-0.006,0.037-0.01,0.055c-0.91,1.396-1.816,2.794-2.713,4.2
	c0-0.004,0-0.007-0.002-0.011C137.539,31.496,138.203,29.867,138.863,28.238 M127.484,22.27c0.137,0.734,0.281,1.464,0.436,2.193
	c-0.096,0.15-0.191,0.304-0.287,0.456c0.004-0.325,0.006-0.651,0.008-0.972c0-0.346-0.08-0.643-0.221-0.89
	C127.441,22.793,127.462,22.532,127.484,22.27 M127.476,35.75c-0.092-0.074-0.182-0.148-0.275-0.221
	c0.084-1.022,0.152-2.04,0.209-3.048c0.289-0.543,0.58-1.087,0.883-1.625C128.058,32.493,127.783,34.125,127.476,35.75
	 M131.337,65.17c-0.814-1.51-1.594-3.037-2.348-4.577c0.158-0.249,0.311-0.503,0.465-0.753c0.553,1.859,1.225,3.686,2.002,5.462
	C131.417,65.258,131.378,65.214,131.337,65.17 M131.968,9.684c-0.33-0.112-0.664-0.22-0.996-0.322
	c-0.408-0.575-1.182-0.924-1.961-0.833c-0.088-0.285-0.244-0.537-0.438-0.75c0.92,0.274,1.777,0.563,2.541,0.86
	c0.313,0.12,0.609,0.258,0.914,0.387c-0.047,0.163-0.076,0.334-0.07,0.523C131.96,9.594,131.966,9.639,131.968,9.684
	 M133.628,22.541c0.652,0.874,1.35,1.721,2.084,2.541c-0.24,0.518-0.48,1.037-0.721,1.557
	C134.539,25.271,134.076,23.909,133.628,22.541 M136.542,82.485c-0.4-0.671-0.807-1.339-1.201-2.013
	c0.23,0.145,0.461,0.281,0.691,0.424c0.32,0.693,0.65,1.387,0.977,2.079C136.855,82.813,136.699,82.646,136.542,82.485
	 M137.837,59.799c-0.506-2.05-1.057-4.084-1.625-6.095c-0.141-0.504-0.432-0.838-0.785-1.039c0.254-0.244,0.514-0.484,0.754-0.744
	c1.211,2.144,2.32,4.369,3.355,6.635c-0.047,1.321-0.037,2.631,0.018,3.926C138.994,61.578,138.419,60.687,137.837,59.799
	 M138.498,48.955c0.334-0.504,0.648-1.02,0.949-1.55c0.197,1.505,0.434,3.01,0.711,4.511
	C139.625,50.914,139.072,49.926,138.498,48.955 M142.687,78.631c-0.719-0.889-1.451-1.768-2.193-2.643
	c-0.068-1.178-0.166-2.354-0.299-3.532c0.988,1.587,1.98,3.171,2.963,4.757C143,77.685,142.837,78.156,142.687,78.631
	 M143.125,68.518c-0.131-0.229-0.26-0.459-0.391-0.688c0.191-0.13,0.354-0.298,0.48-0.494c0.049,0.125,0.098,0.252,0.148,0.378
	C143.283,67.981,143.203,68.25,143.125,68.518 M142.57,43.247c-0.072-0.91-0.129-1.819-0.16-2.729
	c0.307-0.954,0.58-1.913,0.826-2.868c0.137,1.13,0.215,2.271,0.25,3.414C143.16,41.78,142.853,42.507,142.57,43.247 M147.636,84.977
	c-0.564-0.74-1.131-1.482-1.705-2.227c0.104-0.16,0.211-0.323,0.311-0.486c0.486,0.813,0.967,1.629,1.441,2.445
	C147.667,84.797,147.652,84.886,147.636,84.977 M145.751,60.416c-0.131-0.482-0.258-0.965-0.383-1.449
	c1.258-5.677,2.223-11.814,2.01-17.67c0.203-0.41,0.426-0.808,0.646-1.207C149.003,46.937,147.693,53.753,145.751,60.416
	 M150.835,31.522c-0.807-1.26-1.654-2.494-2.553-3.687c0.67,0.069,1.348,0.102,2.033,0.071c0.346-0.016,0.678-0.138,0.961-0.329
	c0.785,1.421,1.5,2.889,2.174,4.38c-0.125,0.225-0.246,0.452-0.373,0.674c-0.242,0.429-0.287,0.845-0.205,1.22
	c-0.637-0.79-1.293-1.565-2.01-2.305C150.855,31.538,150.845,31.532,150.835,31.522 M152.119,63.266
	c0.789-2.155,1.529-4.325,2.184-6.521c0.188,0.618,0.379,1.234,0.578,1.848c-0.461,1.988-0.92,3.977-1.367,5.968
	C153.361,63.809,152.777,63.371,152.119,63.266 M153.562,98.816c0.107,0.068,0.215,0.129,0.334,0.177
	c0.285,1.437,0.535,2.879,0.75,4.329C154.224,101.832,153.863,100.328,153.562,98.816 M155.408,75.85
	c-0.371,1.116-0.775,2.219-1.217,3.307c0.553-3.221,1.191-6.427,1.879-9.621C155.859,71.641,155.638,73.746,155.408,75.85
	 M158.103,83.768c0.283-2.381,0.555-4.762,0.82-7.143c1.287-4.045,2.164-8.25,2.863-12.521c0.223,0.002,0.445-0.039,0.654-0.111
	c-0.301,3.764-0.693,7.521-1.207,11.268C160.189,78.094,159.156,80.936,158.103,83.768 M159.843,106.184
	c-0.924,0.913-0.424,2.36,0.496,2.917c-0.418,0.342-0.848,0.669-1.287,0.987c-0.105-1.13-0.221-2.256-0.352-3.381
	c1.32-1.328,2.598-2.701,3.838-4.108c0.115,0.231,0.268,0.44,0.451,0.604C161.919,104.19,160.861,105.179,159.843,106.184
	 M161.986,91.672c0.213-0.824,0.426-1.65,0.637-2.475c0.168,0.165,0.371,0.293,0.594,0.383
	C162.804,90.275,162.394,90.973,161.986,91.672 M164.724,81.19c0.27-1.012,0.537-2.024,0.813-3.034
	c0.205,0.076,0.43,0.115,0.656,0.113C165.673,79.228,165.187,80.203,164.724,81.19 M168.136,51.596
	c0.48,0.354,1.008,0.612,1.57,0.787c0.127,0.579,0.266,1.152,0.422,1.718c-0.592,0.924-1.17,1.856-1.729,2.801
	C168.242,55.132,168.162,53.354,168.136,51.596 M170.365,85.83c-0.541,0.527-1.074,1.057-1.602,1.595
	c0.459-0.718,0.924-1.431,1.398-2.138c0.369-0.311,0.732-0.629,1.092-0.951C170.96,84.837,170.666,85.334,170.365,85.83
	 M172.408,76.162c-1.068,1.318-2.098,2.666-3.088,4.043c-0.201,0.238-0.404,0.477-0.607,0.709c0.914-1.892,1.955-3.771,3.105-5.6
	c0.682-0.434,1.357-0.879,2.023-1.338C173.382,74.719,172.902,75.445,172.408,76.162 M176.593,63.874
	c-1.188,1.247-2.309,2.554-3.367,3.882c0.93-1.779,1.682-3.645,2.283-5.568c0.396-0.231,0.787-0.467,1.178-0.707
	C176.642,62.277,176.609,63.075,176.593,63.874 M181.201,76.246c-0.098-0.518-0.191-1.037-0.273-1.561
	c0.063-0.064,0.127-0.131,0.191-0.195c0.09,0.373,0.184,0.746,0.283,1.115C181.335,75.82,181.273,76.035,181.201,76.246
	 M184.523,42.28c0.025-0.215,0.053-0.429,0.076-0.644c0.008-0.005,0.012-0.011,0.018-0.015c0.291-0.063,0.582-0.128,0.877-0.193
	C185.173,41.716,184.849,42.001,184.523,42.28 M185.593,73.463c0.295-1.625,0.477-3.283,0.57-4.938
	c0.443-0.644,0.859-1.305,1.24-1.98c0.199,0.953,0.443,1.889,0.709,2.813C187.349,70.771,186.507,72.139,185.593,73.463
	 M191.126,18.015c-1.051,0.662-2.072,1.376-3.061,2.132c-0.25,0.074-0.5,0.146-0.748,0.221c0.244-0.372,0.494-0.737,0.754-1.093
	c0.4-0.368,0.807-0.729,1.217-1.083c0.564-0.319,1.137-0.622,1.719-0.905c0.076,0.028,0.152,0.055,0.229,0.083
	C191.205,17.587,191.171,17.802,191.126,18.015 M193.818,45.909c0.49-0.71,0.959-1.436,1.4-2.176
	c0.164,0.844,0.305,1.695,0.426,2.547c0.002,0.171,0.002,0.343,0.004,0.514c-0.57-0.293-1.258-0.295-1.805,0.201
	C193.833,46.631,193.824,46.271,193.818,45.909 M193.9,71.918c0.021-0.279,0.055-0.555,0.074-0.834
	c0.309-0.52,0.617-1.039,0.918-1.563c0.104,0.224,0.217,0.444,0.324,0.666C194.777,70.764,194.341,71.344,193.9,71.918
	 M196.412,63.482c-1.086-3.389-1.779-6.981-2.174-10.629c0.529-0.788,1.045-1.581,1.549-2.38c0.123,2.146,0.328,4.362,0.678,6.571
	C196.523,59.15,196.521,61.313,196.412,63.482 M194.951,27.532c-1.055,0.508-2.094,1.052-3.115,1.632
	c2.27-1.89,4.686-3.643,7.211-5.105C197.794,25.305,196.414,26.464,194.951,27.532 M200.865,60.439
	c-0.348-1.324-0.619-2.675-0.832-4.034c-0.014-0.473-0.025-0.945-0.043-1.413c-0.104-3.042-0.324-6.234-0.793-9.405
	c-0.021-2.389,0.08-4.789,0.324-7.173c0.789,4.289,1.244,8.641,1.439,12.996C201.093,54.341,201.113,57.403,200.865,60.439
	 M203.197,38.385c-0.145-0.804-0.307-1.603-0.473-2.399c0.16-0.079,0.316-0.159,0.477-0.239
	C203.195,36.62,203.193,37.502,203.197,38.385 M204.166,9.572c-0.133-0.26-0.275-0.503-0.422-0.738
	c0.277,0.191,0.555,0.386,0.824,0.587C204.425,9.454,204.287,9.5,204.166,9.572 M204.837,56.844
	c-0.086,0.126-0.17,0.257-0.258,0.383c0.023-0.816,0.037-1.632,0.039-2.445c0.115,0.116,0.246,0.211,0.383,0.294
	C204.96,55.669,204.902,56.258,204.837,56.844 M207.496,37.056c-0.15-1.204-0.309-2.393-0.457-3.56
	c0.238-0.164,0.467-0.337,0.697-0.507c0.08,0.265,0.16,0.53,0.238,0.797C207.794,34.873,207.626,35.961,207.496,37.056
	 M210.791,16.388c-0.289,0.027-0.574,0.066-0.861,0.104c-0.502-0.456-1.018-0.871-1.549-1.256c-0.049-0.077-0.098-0.152-0.148-0.228
	c-0.061-0.352-0.227-0.669-0.469-0.921c0.982,0.352,1.957,0.72,2.918,1.126c0.428,0.507,0.844,1.032,1.248,1.566
	C211.619,16.507,211.224,16.346,210.791,16.388 M213.982,21.191c-0.436-0.539-0.873-1.077-1.332-1.6
	c-0.1-0.138-0.195-0.284-0.297-0.419c0.061-0.168,0.121-0.333,0.172-0.505c0.121-0.402,0.061-0.848-0.123-1.24
	c1.143,1.579,2.16,3.258,2.988,5.004C214.943,21.995,214.474,21.581,213.982,21.191"/>
</svg>
