<?xml version="1.0" encoding="utf-8"?>
<!-- Generator: Adobe Illustrator 15.0.0, SVG Export Plug-In  -->
<!DOCTYPE svg PUBLIC "-//W3C//DTD SVG 1.1//EN" "http://www.w3.org/Graphics/SVG/1.1/DTD/svg11.dtd" [
	<!ENTITY ns_flows "http://ns.adobe.com/Flows/1.0/">
]>
<svg version="1.1"
	 xmlns="http://www.w3.org/2000/svg" xmlns:xlink="http://www.w3.org/1999/xlink" xmlns:a="http://ns.adobe.com/AdobeSVGViewerExtensions/3.0/"
	 x="0px" y="0px" width="235px" height="32px" viewBox="0 0 235 32" enable-background="new 0 0 235 32" xml:space="preserve">
<defs>
</defs>
<path fill="#FFFFFF" d="M231.837,5.086h0.865c0.756,0,0.744,1.061-0.022,1.061h-0.843V5.086z M232.702,4.766h-1.19v2.686h0.325
	V6.438h0.584l0.878,1.013h0.362V7.395l-0.839-0.957C233.888,6.308,233.843,4.766,232.702,4.766 M232.44,8.389
	c1.388,0,2.183-0.994,2.183-2.242c0-1.258-0.795-2.252-2.183-2.252s-2.169,0.994-2.169,2.252
	C230.271,7.395,231.053,8.389,232.44,8.389 M234.972,6.147c0,1.388-0.901,2.564-2.531,2.564c-1.619,0-2.531-1.176-2.531-2.564
	c0-1.396,0.912-2.561,2.531-2.561C234.07,3.586,234.972,4.75,234.972,6.147"/>
<path fill="#FFFFFF" d="M38.596,0.511H25.712L22.83,4.964c-0.542,0.838-1.042,1.673-1.38,2.591h-0.25
	c-0.123-0.876-0.251-1.753-0.583-2.591l-1.634-4.453H6.092l7.597,14.726L0,31.966h13.023l4.506-6.428
	c0.5-0.701,0.915-1.421,1.255-2.168h0.327c0,0.662,0.129,1.301,0.338,1.92l2.546,6.676h13.016l-8.552-16.729L38.596,0.511z"/>
<path fill="#FFFFFF" d="M53.874,13.44l-1.163,7.431h5.174c-0.833,1.91-3.253,2.748-5.055,2.748c-3.712,0-5.379-3.25-4.837-6.714
	c0.628-3.795,3.42-7.3,7.506-7.3c1.843,0,3.342,0.829,3.971,2.419l11.315-3.932C69.153,2.715,62.059,0,56.585,0
	c-9.878,0-18.404,6.177-20.026,16.452C34.974,26.543,41.771,32.47,51.375,32.47c4.884,0,10.346-1.961,14.226-5.592
	c4.393-4.008,5.051-8.31,5.927-13.438H53.874z"/>
<path fill="#FFFFFF" d="M113.968,20.566l3.635-9.59h0.414c0,1.337-0.041,2.714,0.083,4.051l0.456,5.539H113.968z M89.386,11.815
	c-0.368,2.336-2.294,2.627-4.173,2.627h-0.79L85.256,9.1h0.883C88.095,9.1,89.769,9.391,89.386,11.815 M113.016,0.511L98.564,29.089
	l-3.746-7.348c-0.51-0.914-1.129-1.417-1.634-1.881l0.052-0.243c4.456-1.421,6.628-3.417,7.383-8.179
	c1.246-7.934-4.299-10.927-11.396-10.927H75.409L70.45,31.966h11.177l1.585-10.105h0.205l3.426,10.105h10.266h2.918h9.185
	l1.55-3.923h8.639l0.416,3.923h12.098l-6.261-31.455H113.016z"/>
<path fill="#FFFFFF" d="M157.626,0.511l-1.47,9.418c-0.453,2.674-0.372,5.383-0.328,8.015h-0.34l-7.516-17.433h-10.966
	l-4.963,31.455h10.931l1.626-10.225c0.332-2.09,0.292-4.135,0.292-6.305h0.335l7.425,16.529h10.93l4.976-31.455H157.626z"/>
<path fill="#FFFFFF" d="M187.873,16.649c-0.665,4.129-3.837,5.887-7.634,5.887h-0.707l1.921-12.182h0.704
	C186.336,10.354,188.586,12.226,187.873,16.649 M183.203,0.511h-11.646l-4.962,31.455h14.482c9.224,0,16.724-5.93,18.234-15.27
	C201.15,5.137,193.759,0.511,183.203,0.511"/>
<polygon fill="#FFFFFF" points="223.556,9.1 224.895,0.511 203.738,0.511 198.772,31.966 220.26,31.966 221.635,23.37 
	211.658,23.37 212.122,20.282 220.921,20.282 222.222,12.101 213.416,12.101 213.918,9.1 "/>
<path fill="#F22737" d="M36.559,16.452c1.358-8.597,7.549-14.307,15.324-15.941H38.596L26.459,15.237l8.556,16.729h11.817
	C39.751,30.36,35.238,24.861,36.559,16.452"/>
</svg>
