<?xml version="1.0" encoding="utf-8"?>
<!-- Generator: Adobe Illustrator 15.0.0, SVG Export Plug-In  -->
<!DOCTYPE svg PUBLIC "-//W3C//DTD SVG 1.1//EN" "http://www.w3.org/Graphics/SVG/1.1/DTD/svg11.dtd" [
	<!ENTITY ns_flows "http://ns.adobe.com/Flows/1.0/">
]>
<svg version="1.1"
	 xmlns="http://www.w3.org/2000/svg" xmlns:xlink="http://www.w3.org/1999/xlink" xmlns:a="http://ns.adobe.com/AdobeSVGViewerExtensions/3.0/"
	 x="0px" y="0px" width="523px" height="82px" viewBox="-2.77 -5.508 523 82" enable-background="new -2.77 -5.508 523 82"
	 xml:space="preserve">
<defs>
</defs>
<path d="M509.897,11.188h1.901c1.663,0,1.637,2.333-0.049,2.333h-1.853V11.188z M511.799,10.482h-2.617v5.906h0.716V14.16h1.284
	l1.931,2.228h0.797v-0.124l-1.846-2.104C514.406,13.873,514.308,10.482,511.799,10.482 M511.223,18.453
	c3.053,0,4.801-2.188,4.801-4.933c0-2.764-1.748-4.954-4.801-4.954c-3.051,0-4.769,2.189-4.769,4.954
	C506.454,16.265,508.172,18.453,511.223,18.453 M516.791,13.521c0,3.051-1.982,5.638-5.568,5.638c-3.56,0-5.565-2.587-5.565-5.638
	c0-3.072,2.006-5.633,5.565-5.633C514.809,7.887,516.791,10.449,516.791,13.521"/>
<path d="M84.887,1.125H56.551l-6.339,9.795c-1.192,1.843-2.293,3.678-3.035,5.698h-0.549c-0.271-1.928-0.552-3.855-1.284-5.698
	L41.75,1.125H13.399l16.708,32.39L0,70.309h28.643l9.909-14.14c1.102-1.541,2.013-3.124,2.761-4.77h0.719
	c0,1.457,0.284,2.862,0.745,4.228l5.6,14.682h28.627L58.194,33.515L84.887,1.125z"/>
<path d="M118.489,29.562l-2.559,16.342h11.379c-1.832,4.2-7.154,6.043-11.117,6.043c-8.165,0-11.831-7.148-10.638-14.767
	c1.382-8.344,7.521-16.055,16.508-16.055c4.055,0,7.351,1.823,8.733,5.325l24.886-8.651C152.095,5.973,136.491,0,124.451,0
	c-21.726,0-40.476,13.585-44.044,36.188c-3.485,22.19,11.465,35.227,32.587,35.227c10.743,0,22.755-4.313,31.29-12.299
	c9.661-8.813,11.108-18.274,13.036-29.553H118.489z"/>
<path d="M250.657,45.238l7.995-21.094h0.911c0,2.94-0.091,5.966,0.184,8.906l1.003,12.188H250.657z M196.593,25.987
	c-0.81,5.136-5.044,5.776-9.177,5.776h-1.738l1.832-11.749h1.941C193.753,20.015,197.436,20.655,196.593,25.987 M248.563,1.125
	l-31.783,62.853l-8.24-16.159c-1.12-2.013-2.482-3.116-3.593-4.136l0.114-0.536c9.801-3.124,14.578-7.515,16.237-17.989
	c2.741-17.447-9.455-24.033-25.062-24.033h-30.385l-10.905,69.184h24.581l3.486-22.229h0.451L191,70.309h22.579h6.417h20.201
	l3.407-8.632h19.002l0.915,8.632h26.606L276.356,1.125H248.563z"/>
<path d="M346.679,1.125l-3.231,20.713c-0.996,5.881-0.82,11.84-0.723,17.629h-0.748L325.448,1.125h-24.117l-10.916,69.184h24.039
	l3.578-22.49c0.729-4.595,0.641-9.095,0.641-13.866h0.738l16.329,36.356h24.039l10.941-69.184H346.679z"/>
<path d="M413.204,36.619c-1.464,9.082-8.44,12.95-16.791,12.95h-1.555l4.226-26.797h1.547
	C409.823,22.772,414.772,26.889,413.204,36.619 M402.933,1.125h-25.615l-10.912,69.184h31.851c20.286,0,36.782-13.042,40.104-33.586
	C442.405,11.298,426.147,1.125,402.933,1.125"/>
<polygon points="491.684,20.015 494.627,1.125 448.097,1.125 437.174,70.309 484.434,70.309 487.459,51.399 465.516,51.399 
	466.536,44.61 485.888,44.61 488.749,26.615 469.382,26.615 470.486,20.015 "/>
<path fill="#F22737" d="M80.407,36.188c2.986-18.91,16.604-31.469,33.704-35.063H84.887l-26.693,32.39l18.819,36.794h25.99
	C87.428,66.773,77.502,54.679,80.407,36.188"/>
</svg>
